<?xml version="1.0" encoding="UTF-8"?>
<!DOCTYPE svg PUBLIC "-//W3C//DTD SVG 1.1//EN" "http://www.w3.org/Graphics/SVG/1.1/DTD/svg11.dtd">
<svg xmlns="http://www.w3.org/2000/svg" version="1.1" width="1024px" height="1024px" style="shape-rendering:geometricPrecision; text-rendering:geometricPrecision; image-rendering:optimizeQuality; fill-rule:evenodd; clip-rule:evenodd" xmlns:xlink="http://www.w3.org/1999/xlink">
<g><path style="opacity:1" fill="#e7e702" d="M -0.5,-0.5 C 340.833,-0.5 682.167,-0.5 1023.5,-0.5C 1023.5,88.5 1023.5,177.5 1023.5,266.5C 1023.17,266.5 1022.83,266.5 1022.5,266.5C 1021.54,277.756 1020.87,289.756 1020.5,302.5C 1020.89,315.007 1021.56,327.34 1022.5,339.5C 1022.83,339.5 1023.17,339.5 1023.5,339.5C 1023.5,567.5 1023.5,795.5 1023.5,1023.5C 682.167,1023.5 340.833,1023.5 -0.5,1023.5C -0.5,682.167 -0.5,340.833 -0.5,-0.5 Z"/></g>
<g><path style="opacity:1" fill="#fefca9" d="M 1022.5,266.5 C 1022.5,290.833 1022.5,315.167 1022.5,339.5C 1021.56,327.34 1020.89,315.007 1020.5,302.5C 1020.87,289.756 1021.54,277.756 1022.5,266.5 Z"/></g>
<g><path style="opacity:1" fill="#fefdfd" d="M 536.5,310.5 C 554.482,309.557 572.148,311.057 589.5,315C 613.997,324.826 622.997,342.659 616.5,368.5C 613.867,371.986 611.367,375.652 609,379.5C 599.367,386.93 593.534,396.596 591.5,408.5C 590.667,474.164 590.167,539.831 590,605.5C 587.774,657.888 562.607,694.388 514.5,715C 505.761,718.164 496.761,720.164 487.5,721C 470.054,722.173 452.721,721.506 435.5,719C 427.674,715.955 420.841,711.455 415,705.5C 413.411,702.079 411.245,699.079 408.5,696.5C 407.501,685.854 407.168,675.187 407.5,664.5C 408.822,664.67 409.989,664.337 411,663.5C 416.095,654.844 423.262,648.344 432.5,644C 446.202,640.467 460.202,638.3 474.5,637.5C 481.783,636.131 488.283,633.131 494,628.5C 503.58,617.284 507.914,604.284 507,589.5C 507.833,531.497 507.667,473.497 506.5,415.5C 505.697,410.161 504.863,404.827 504,399.5C 501.571,394.967 498.904,390.633 496,386.5C 473.223,365.435 472.723,343.935 494.5,322C 498.833,319.667 503.167,317.333 507.5,315C 517.2,312.776 526.867,311.276 536.5,310.5 Z"/></g>
</svg>
